<svg xmlns="http://www.w3.org/2000/svg" width="80" height="16"><path d="M20.29 3.55c1.84 0 3.14.87 3.15.87l.26.18h.76l.25-.18s1.31-.87 3.15-.87c.92 0 1.83.22 2.71.64l-.11 7.79a8.08 8.08 0 0 0-2.74-.49c-1.62 0-2.92.5-3.65.86-.73-.36-2.02-.86-3.65-.86-.93 0-1.85.16-2.74.49l-.11-7.79c.88-.43 1.79-.64 2.71-.64m7.57-1c-2.2 0-3.72 1.05-3.72 1.05h-.14s-1.51-1.05-3.72-1.05c-1.1 0-2.37.26-3.72 1.05l.14 9.95c1.34-.79 2.61-1.05 3.72-1.05 1.93 0 3.33.8 3.65 1 .32-.2 1.72-1 3.65-1 1.1 0 2.37.26 3.72 1.05l.14-9.95c-1.34-.79-2.61-1.05-3.72-1.05Zm-3.78 10.96-.07.04h.14s-.02-.02-.07-.04Z" fill="#44655c"/><path fill="none" stroke="#44655c" stroke-miterlimit="2" d="M24 4.5v8"/><path d="M14 2v5.59L7.59 14H2V2h12m1-1H1v14h7l7-7V1Z" fill="#44655c"/><path fill="none" stroke="#44655c" stroke-miterlimit="2" d="M8 14V8h6"/><path d="M41.59 1 45 4.41V15H35V1h6.59M42 0h-8v16h12V4l-4-4Z" fill="#44655c"/><path fill="none" stroke="#44655c" stroke-miterlimit="2" d="M42 1v3h3"/><path d="M62 4v8H50V4h12m1-1H49v10h14V3Z" fill="#44655c"/><path fill="none" stroke="#44655c" stroke-miterlimit="10" d="m62.5 3.5-6.5 5-6.5-5M72.01 3.06a3.48 3.48 0 0 0-4.13-.59l2.01 2.01-.35 1.06-1.06.35-2.01-2.01c-.71 1.33-.53 3.01.59 4.13.99.99 2.41 1.25 3.64.81l4.84 4.84c.39.39 1.02.39 1.41 0l.71-.71a.996.996 0 0 0 0-1.41L72.82 6.7c.44-1.23.17-2.66-.81-3.64Z"/></svg>